<?xml version="1.0" standalone="no"?><!-- Generator: Gravit.io --><svg xmlns="http://www.w3.org/2000/svg" xmlns:xlink="http://www.w3.org/1999/xlink" style="isolation:isolate" viewBox="0 0 2048 512" width="2048" height="512"><defs><clipPath id="_clipPath_sGFnTx47rdmb29wdTK1KNEsXlSkFsi3d"><rect width="2048" height="512"/></clipPath></defs><g clip-path="url(#_clipPath_sGFnTx47rdmb29wdTK1KNEsXlSkFsi3d)"><rect x="240.576" y="-202.221" width="307.576" height="525.406" transform="matrix(0.902,0.431,-0.431,0.902,64.522,-163.984)" fill="rgb(255,0,0)"/><rect x="11.607" y="271.339" width="307.576" height="537.64" transform="matrix(0.902,0.431,-0.431,0.902,248.822,-18.56)" fill="rgb(255,255,0)"/><rect x="623.951" y="-289.245" width="307.576" height="521.156" transform="matrix(0.902,0.431,-0.431,0.902,63.514,-337.83)" fill="rgb(0,0,0)"/><rect x="397.105" y="180.546" width="307.576" height="532.034" transform="matrix(0.902,0.431,-0.431,0.902,246.106,-193.754)" fill="rgb(0,255,255)"/><path d=" M 1383.405 296.54 L 1383.405 296.54 L 1383.405 296.54 Q 1383.405 312.732 1375.19 325.293 L 1375.19 325.293 L 1375.19 325.293 Q 1366.974 337.854 1351.497 344.819 L 1351.497 344.819 L 1351.497 344.819 Q 1336.019 351.784 1315.183 351.784 L 1315.183 351.784 L 1315.183 351.784 Q 1297.8 351.784 1286.013 349.343 L 1286.013 349.343 L 1286.013 349.343 Q 1274.226 346.903 1261.487 340.831 L 1261.487 340.831 L 1261.487 298.921 L 1261.487 298.921 Q 1274.941 305.827 1289.466 309.696 L 1289.466 309.696 L 1289.466 309.696 Q 1303.991 313.566 1316.136 313.566 L 1316.136 313.566 L 1316.136 313.566 Q 1326.613 313.566 1331.494 309.934 L 1331.494 309.934 L 1331.494 309.934 Q 1336.376 306.303 1336.376 300.588 L 1336.376 300.588 L 1336.376 300.588 Q 1336.376 297.016 1334.411 294.337 L 1334.411 294.337 L 1334.411 294.337 Q 1332.447 291.659 1328.101 288.92 L 1328.101 288.92 L 1328.101 288.92 Q 1323.755 286.182 1304.944 277.729 L 1304.944 277.729 L 1304.944 277.729 Q 1287.918 269.99 1279.405 262.727 L 1279.405 262.727 L 1279.405 262.727 Q 1270.893 255.464 1266.785 246.058 L 1266.785 246.058 L 1266.785 246.058 Q 1262.678 236.653 1262.678 223.794 L 1262.678 223.794 L 1262.678 223.794 Q 1262.678 199.744 1280.179 186.29 L 1280.179 186.29 L 1280.179 186.29 Q 1297.681 172.836 1328.28 172.836 L 1328.28 172.836 L 1328.28 172.836 Q 1355.307 172.836 1383.405 185.338 L 1383.405 185.338 L 1368.998 221.651 L 1368.998 221.651 Q 1344.591 210.459 1326.851 210.459 L 1326.851 210.459 L 1326.851 210.459 Q 1317.683 210.459 1313.516 213.674 L 1313.516 213.674 L 1313.516 213.674 Q 1309.349 216.889 1309.349 221.651 L 1309.349 221.651 L 1309.349 221.651 Q 1309.349 226.771 1314.647 230.819 L 1314.647 230.819 L 1314.647 230.819 Q 1319.946 234.867 1343.4 245.582 L 1343.4 245.582 L 1343.4 245.582 Q 1365.903 255.702 1374.654 267.311 L 1374.654 267.311 L 1374.654 267.311 Q 1383.405 278.919 1383.405 296.54 Z  M 1473.653 314.994 L 1473.653 314.994 L 1473.653 314.994 Q 1483.058 314.994 1496.155 310.351 L 1496.155 310.351 L 1496.155 344.283 L 1496.155 344.283 Q 1486.749 348.331 1478.236 350.058 L 1478.236 350.058 L 1478.236 350.058 Q 1469.724 351.784 1458.294 351.784 L 1458.294 351.784 L 1458.294 351.784 Q 1434.839 351.784 1424.481 340.295 L 1424.481 340.295 L 1424.481 340.295 Q 1414.122 328.805 1414.122 304.993 L 1414.122 304.993 L 1414.122 249.392 L 1397.811 249.392 L 1397.811 230.462 L 1418.528 215.817 L 1430.553 187.481 L 1461.032 187.481 L 1461.032 214.507 L 1494.131 214.507 L 1494.131 249.392 L 1461.032 249.392 L 1461.032 301.898 L 1461.032 301.898 Q 1461.032 314.994 1473.653 314.994 Z  M 1650.934 349.403 L 1615.811 349.403 L 1609.977 332.615 L 1607.238 332.615 L 1607.238 332.615 Q 1601.404 341.902 1590.987 346.843 L 1590.987 346.843 L 1590.987 346.843 Q 1580.569 351.784 1566.52 351.784 L 1566.52 351.784 L 1566.52 351.784 Q 1544.255 351.784 1531.873 338.866 L 1531.873 338.866 L 1531.873 338.866 Q 1519.491 325.948 1519.491 302.374 L 1519.491 302.374 L 1519.491 214.507 L 1566.043 214.507 L 1566.043 288.206 L 1566.043 288.206 Q 1566.043 301.422 1569.794 308.208 L 1569.794 308.208 L 1569.794 308.208 Q 1573.544 314.994 1582.117 314.994 L 1582.117 314.994 L 1582.117 314.994 Q 1594.142 314.994 1599.261 305.529 L 1599.261 305.529 L 1599.261 305.529 Q 1604.381 296.064 1604.381 273.561 L 1604.381 273.561 L 1604.381 214.507 L 1650.934 214.507 L 1650.934 349.403 Z  M 1724.989 351.784 L 1724.989 351.784 L 1724.989 351.784 Q 1710.583 351.784 1699.808 343.569 L 1699.808 343.569 L 1699.808 343.569 Q 1689.033 335.354 1683.139 319.4 L 1683.139 319.4 L 1683.139 319.4 Q 1677.246 303.446 1677.246 282.134 L 1677.246 282.134 L 1677.246 282.134 Q 1677.246 249.273 1690.462 230.7 L 1690.462 230.7 L 1690.462 230.7 Q 1703.677 212.126 1726.775 212.126 L 1726.775 212.126 L 1726.775 212.126 Q 1738.086 212.126 1746.599 216.651 L 1746.599 216.651 L 1746.599 216.651 Q 1755.111 221.175 1762.136 231.89 L 1762.136 231.89 L 1763.088 231.89 L 1763.088 231.89 Q 1760.826 216.055 1760.826 200.22 L 1760.826 200.22 L 1760.826 164.145 L 1807.736 164.145 L 1807.736 349.403 L 1772.613 349.403 L 1762.612 332.377 L 1760.826 332.377 L 1760.826 332.377 Q 1748.801 351.784 1724.989 351.784 Z  M 1744.039 314.994 L 1744.039 314.994 L 1744.039 314.994 Q 1755.23 314.994 1759.814 307.97 L 1759.814 307.97 L 1759.814 307.97 Q 1764.398 300.945 1764.755 286.301 L 1764.755 286.301 L 1764.755 282.61 L 1764.755 282.61 Q 1764.755 264.751 1759.636 257.191 L 1759.636 257.191 L 1759.636 257.191 Q 1754.516 249.63 1743.563 249.63 L 1743.563 249.63 L 1743.563 249.63 Q 1734.395 249.63 1729.335 258.262 L 1729.335 258.262 L 1729.335 258.262 Q 1724.275 266.894 1724.275 282.848 L 1724.275 282.848 L 1724.275 282.848 Q 1724.275 298.564 1729.394 306.779 L 1729.394 306.779 L 1729.394 306.779 Q 1734.514 314.994 1744.039 314.994 Z  M 1886.673 214.507 L 1886.673 349.403 L 1840.121 349.403 L 1840.121 214.507 L 1886.673 214.507 Z  M 1838.93 180.932 L 1838.93 180.932 L 1838.93 180.932 Q 1838.93 170.455 1844.764 165.335 L 1844.764 165.335 L 1844.764 165.335 Q 1850.598 160.216 1863.575 160.216 L 1863.575 160.216 L 1863.575 160.216 Q 1876.553 160.216 1882.506 165.455 L 1882.506 165.455 L 1882.506 165.455 Q 1888.459 170.693 1888.459 180.932 L 1888.459 180.932 L 1888.459 180.932 Q 1888.459 201.411 1863.575 201.411 L 1863.575 201.411 L 1863.575 201.411 Q 1838.93 201.411 1838.93 180.932 Z  M 2048 281.658 L 2048 281.658 L 2048 281.658 Q 2048 314.756 2030.2 333.27 L 2030.2 333.27 L 2030.2 333.27 Q 2012.401 351.784 1980.374 351.784 L 1980.374 351.784 L 1980.374 351.784 Q 1949.656 351.784 1931.499 332.853 L 1931.499 332.853 L 1931.499 332.853 Q 1913.343 313.923 1913.343 281.658 L 1913.343 281.658 L 1913.343 281.658 Q 1913.343 248.678 1931.142 230.402 L 1931.142 230.402 L 1931.142 230.402 Q 1948.942 212.126 1981.088 212.126 L 1981.088 212.126 L 1981.088 212.126 Q 2000.971 212.126 2016.211 220.58 L 2016.211 220.58 L 2016.211 220.58 Q 2031.451 229.033 2039.725 244.808 L 2039.725 244.808 L 2039.725 244.808 Q 2048 260.584 2048 281.658 Z  M 1960.61 281.658 L 1960.61 281.658 L 1960.61 281.658 Q 1960.61 299.04 1965.253 308.148 L 1965.253 308.148 L 1965.253 308.148 Q 1969.896 317.257 1980.85 317.257 L 1980.85 317.257 L 1980.85 317.257 Q 1991.684 317.257 1996.149 308.148 L 1996.149 308.148 L 1996.149 308.148 Q 2000.614 299.04 2000.614 281.658 L 2000.614 281.658 L 2000.614 281.658 Q 2000.614 264.394 1996.09 255.583 L 1996.09 255.583 L 1996.09 255.583 Q 1991.565 246.773 1980.612 246.773 L 1980.612 246.773 L 1980.612 246.773 Q 1969.896 246.773 1965.253 255.524 L 1965.253 255.524 L 1965.253 255.524 Q 1960.61 264.275 1960.61 281.658 Z  M 991.696 211.412 L 991.696 211.412 L 991.696 211.412 Q 974.908 211.412 965.503 225.163 L 965.503 225.163 L 965.503 225.163 Q 956.097 238.915 956.097 263.084 L 956.097 263.084 L 956.097 263.084 Q 956.097 313.328 994.315 313.328 L 994.315 313.328 L 994.315 313.328 Q 1005.864 313.328 1016.699 310.113 L 1016.699 310.113 L 1016.699 310.113 Q 1027.533 306.898 1038.487 302.374 L 1038.487 302.374 L 1038.487 342.14 L 1038.487 342.14 Q 1016.699 351.784 989.196 351.784 L 989.196 351.784 L 989.196 351.784 Q 949.787 351.784 928.773 328.925 L 928.773 328.925 L 928.773 328.925 Q 907.758 306.065 907.758 262.846 L 907.758 262.846 L 907.758 262.846 Q 907.758 235.819 917.938 215.341 L 917.938 215.341 L 917.938 215.341 Q 928.118 194.862 947.227 183.849 L 947.227 183.849 L 947.227 183.849 Q 966.336 172.836 992.172 172.836 L 992.172 172.836 L 992.172 172.836 Q 1020.39 172.836 1046.107 185.1 L 1046.107 185.1 L 1031.7 222.127 L 1031.7 222.127 Q 1022.056 217.603 1012.413 214.507 L 1012.413 214.507 L 1012.413 214.507 Q 1002.769 211.412 991.696 211.412 Z  M 1175.763 311.065 L 1175.763 349.403 L 1072.419 349.403 L 1072.419 175.337 L 1175.763 175.337 L 1175.763 213.079 L 1119.448 213.079 L 1119.448 240.463 L 1171.596 240.463 L 1171.596 278.205 L 1119.448 278.205 L 1119.448 311.065 L 1175.763 311.065 Z " fill-rule="evenodd" fill="rgb(250,250,250)"/></g></svg>