<?xml version="1.0" standalone="no"?><!-- Generator: Gravit.io --><svg xmlns="http://www.w3.org/2000/svg" xmlns:xlink="http://www.w3.org/1999/xlink" style="isolation:isolate" viewBox="0 0 1024 1024" width="1024" height="1024"><defs><clipPath id="_clipPath_XNNNOcXVz50KstbrFrobogLFG7idGlYk"><rect width="1024" height="1024"/></clipPath></defs><g clip-path="url(#_clipPath_XNNNOcXVz50KstbrFrobogLFG7idGlYk)"><rect width="1024" height="1024" style="fill:rgb(106,106,106)"/><path d=" M 664.769 617.064 L 493.847 674.73 L 477.693 626.85 L 477.693 626.85 Q 459.285 572.289 468.876 527.195 L 468.876 527.195 L 468.876 527.195 Q 478.467 482.101 523.234 427.31 L 523.234 427.31 L 523.234 427.31 Q 558.75 383.701 570.814 354.206 L 570.814 354.206 L 570.814 354.206 Q 582.877 324.711 572.922 295.203 L 572.922 295.203 L 572.922 295.203 Q 565.032 271.82 539.274 265.317 L 539.274 265.317 L 539.274 265.317 Q 513.516 258.815 479.554 270.273 L 479.554 270.273 L 479.554 270.273 Q 395.485 298.636 303.121 396.151 L 303.121 396.151 L 174.641 270.825 L 174.641 270.825 Q 286.598 144.996 437.477 94.092 L 437.477 94.092 L 437.477 94.092 Q 561.632 52.204 650.747 82.91 L 650.747 82.91 L 650.747 82.91 Q 739.862 113.616 771.606 207.707 L 771.606 207.707 L 771.606 207.707 Q 794.334 275.073 779.502 334.958 L 779.502 334.958 L 779.502 334.958 Q 764.669 394.843 710.471 462.118 L 710.471 462.118 L 710.471 462.118 Q 664.786 519.7 655.949 542.215 L 655.949 542.215 L 655.949 542.215 Q 647.112 564.73 655.189 588.67 L 655.189 588.67 L 664.769 617.064 Z  M 535.65 877.669 L 535.65 877.669 L 535.65 877.669 Q 518.369 826.448 538.763 788.561 L 538.763 788.561 L 538.763 788.561 Q 559.157 750.675 617.059 731.14 L 617.059 731.14 L 617.059 731.14 Q 672.734 712.356 712.005 730.423 L 712.005 730.423 L 712.005 730.423 Q 751.277 748.489 768.37 799.153 L 768.37 799.153 L 768.37 799.153 Q 785.464 849.817 763.956 888.079 L 763.956 888.079 L 763.956 888.079 Q 742.448 926.342 689 944.374 L 689 944.374 L 689 944.374 Q 633.882 962.97 593.407 945.93 L 593.407 945.93 L 593.407 945.93 Q 552.931 928.89 535.65 877.669 Z " fill-rule="evenodd" fill="rgb(138,138,138)"/></g></svg>